<?xml version="1.0" encoding="UTF-8" standalone="no"?>
<!-- Created with Inkscape (http://www.inkscape.org/) -->

<svg
   width="60.000004mm"
   height="60.000004mm"
   viewBox="0 0 60.000004 60.000004"
   version="1.1"
   id="svg1"
   xml:space="preserve"
   xmlns="http://www.w3.org/2000/svg"
   xmlns:svg="http://www.w3.org/2000/svg"><defs
     id="defs1"><linearGradient
       id="swatch2"><stop
         style="stop-color:#000000;stop-opacity:0;"
         offset="0"
         id="stop2" /></linearGradient></defs><g
     id="layer1"
     transform="translate(-74.833342,-131.57918)"><g
       id="g6"
       mask="none"><path
         id="rect3"
         style="fill:#7e56c2;stroke-width:0.264583"
         d="M 104.83358 131.57918 A 30.000002 30.000002 0 0 0 74.833342 161.57942 A 30.000002 30.000002 0 0 0 74.839543 161.66675 L 134.8271 161.66675 A 30.000002 30.000002 0 0 0 134.8333 161.57942 A 30.000002 30.000002 0 0 0 104.83358 131.57918 z " /><path
         id="rect2"
         style="fill:#0981c3;stroke-width:0.264583"
         d="M 74.839543 161.66675 A 30.000002 30.000002 0 0 0 104.83358 191.57914 A 30.000002 30.000002 0 0 0 134.8271 161.66675 L 74.839543 161.66675 z " /><g
         id="g5"
         transform="translate(0,22.182071)"
         mask="none"><path
           style="fill:#ffffff;stroke-width:2.13964"
           d="m 129.26321,150.36944 v -1.47135 h -3.06389 -3.06396 l 1.03438,-0.53033 1.03433,-0.53033 0.67417,-0.78577 0.67417,-0.78576 0.37634,-0.9776 0.37624,-0.97757 0.007,-1.99065 0.007,-1.99073 -0.39981,-0.90741 -0.39975,-0.9073 -0.6761,-0.62667 -0.67608,-0.62671 -1.05237,-0.50523 -1.05238,-0.50522 -1.49925,-0.35891 -1.49929,-0.35884 -1.62788,-0.39932 -1.62787,-0.3993 -0.43045,-0.28938 -0.43042,-0.28933 -0.19071,-0.59271 -0.19075,-0.59274 0.30861,-0.6481 0.30872,-0.64813 0.67113,-0.33604 0.67118,-0.33598 1.35346,-0.0731 1.35355,-0.0731 1.51846,0.29223 1.51851,0.29232 1.2654,0.50492 1.2654,0.5049 0.13141,7.7e-4 0.1314,7.7e-4 -0.0463,-2.38015 -0.0463,-2.38014 -1.85594,-0.40199 -1.8559,-0.40231 -2.69956,-0.0917 -2.69956,-0.0917 -1.14247,0.27567 -1.14245,0.27568 -0.71348,0.37275 -0.71349,0.37283 -0.53899,0.42125 -0.53912,0.42102 -0.50698,0.81059 -0.50706,0.81065 -0.2615,1.03006 -0.2615,1.03008 v 0.87925 0.87937 l 0.2545,1.00273 0.25464,1.00281 0.50956,0.75975 0.50936,0.75976 0.73527,0.51896 0.73529,0.51905 0.89483,0.36185 0.89481,0.36188 2.11917,0.51307 2.11917,0.51304 0.77714,0.26108 0.7772,0.2612 0.38122,0.41635 0.38122,0.41629 0.084,0.76168 0.084,0.76171 -0.52268,0.61081 -0.5227,0.61076 -0.76081,0.21854 -0.7608,0.21854 -1.81456,-0.0872 -1.81454,-0.0871 -1.4341,-0.47508 -1.4341,-0.47506 -0.96543,-0.49902 -0.96521,-0.49896 h -0.17371 -0.17349 v 2.41789 2.41785 l 1.47641,0.45545 1.47633,0.45541 0.16872,0.0571 0.16875,0.0571 -2.82608,0.0126 -2.82605,0.0126 v 1.47138 1.47144 h 10.46071 10.46075 z"
           id="path5" /><g
           id="g1"
           transform="matrix(0.06042167,0,0,0.06042167,79.959067,126.7038)"><path
             d="m 26.66665,400 h 362.6667"
             id="stackline3"
             style="fill:none;stroke:#ffffff;stroke-width:32;stroke-linecap:round;stroke-linejoin:miter;stroke-miterlimit:10;stroke-opacity:1" /><path
             d="m 26.66665,346.6667 h 362.6667"
             id="stackline2"
             style="fill:none;stroke:#ffffff;stroke-width:32;stroke-linecap:round;stroke-linejoin:miter;stroke-miterlimit:10;stroke-opacity:1" /><path
             d="m 26.66665,293.3334 h 362.6667"
             id="stackline1"
             style="fill:none;stroke:#ffffff;stroke-width:32;stroke-linecap:round;stroke-linejoin:miter;stroke-miterlimit:10;stroke-opacity:1" /><path
             d="m 318.22215,181.3334 -28.4444,-42.6667 h 99.5556 v 42.6667 z"
             id="equalsbottom"
             style="fill:#ffffff;fill-opacity:1;stroke:none" /><path
             d="m 275.55555,117.3334 -28.4444,-42.6667 h 142.2222 v 42.6667 z"
             id="equalstop"
             style="fill:#ffffff;fill-opacity:1;stroke:none" /><path
             d="M 111.99995,256 197.33325,128 111.99995,0 h 64 l 170.6667,256 h -64 l -53.3333,-80 -53.3333,80 z"
             id="lambda"
             style="fill:#ffffff;fill-opacity:1;stroke:none" /><path
             d="M 26.66665,256 111.99995,128 26.66665,0 h 64 l 85.3333,128 -85.3333,128 z"
             id="arrow"
             style="fill:#ffffff;fill-opacity:1;stroke:none" /></g></g></g></g></svg>
