<?xml version="1.0" encoding="UTF-8" standalone="no"?>
<!-- Created with Inkscape (http://www.inkscape.org/) -->

<svg
   width="60.000004mm"
   height="60.000004mm"
   viewBox="0 0 60.000004 60.000004"
   version="1.1"
   id="svg1"
   xml:space="preserve"
   inkscape:export-filename="bitmap.png"
   inkscape:export-xdpi="108.37333"
   inkscape:export-ydpi="108.37333"
   inkscape:version="1.3.2 (091e20e, 2023-11-25, custom)"
   sodipodi:docname="stack-and-stackage-avatar.svg"
   xmlns:inkscape="http://www.inkscape.org/namespaces/inkscape"
   xmlns:sodipodi="http://sodipodi.sourceforge.net/DTD/sodipodi-0.dtd"
   xmlns="http://www.w3.org/2000/svg"
   xmlns:svg="http://www.w3.org/2000/svg"><sodipodi:namedview
     id="namedview1"
     pagecolor="#ffffff"
     bordercolor="#666666"
     borderopacity="1.0"
     inkscape:showpageshadow="2"
     inkscape:pageopacity="0.0"
     inkscape:pagecheckerboard="true"
     inkscape:deskcolor="#d1d1d1"
     inkscape:document-units="mm"
     inkscape:zoom="1.9506277"
     inkscape:cx="113.80952"
     inkscape:cy="43.832044"
     inkscape:window-width="1920"
     inkscape:window-height="1129"
     inkscape:window-x="-8"
     inkscape:window-y="-8"
     inkscape:window-maximized="1"
     inkscape:current-layer="layer1" /><defs
     id="defs1"><rect
       x="242.04768"
       y="430.0065"
       width="11.493885"
       height="63.55442"
       id="rect4" /><linearGradient
       id="swatch2"
       inkscape:swatch="solid"><stop
         style="stop-color:#000000;stop-opacity:0;"
         offset="0"
         id="stop2" /></linearGradient><mask
       maskUnits="userSpaceOnUse"
       id="mask6"><circle
         style="fill:#ffffff;fill-opacity:1;stroke:none;stroke-width:0.264583"
         id="circle6"
         cx="104.83334"
         cy="161.57918"
         r="30.000002" /></mask></defs><g
     inkscape:label="Layer 1"
     inkscape:groupmode="layer"
     id="layer1"
     transform="translate(-74.833342,-131.57918)"><g
       id="g6"
       mask="url(#mask6)"><rect
         style="fill:#7e56c2;fill-opacity:1;stroke:none;stroke-width:0.264583"
         id="rect3"
         width="139"
         height="59.666664"
         x="17.331215"
         y="102.72501" /><rect
         style="fill:#0981c3;fill-opacity:1;stroke:none;stroke-width:0.264583"
         id="rect2"
         width="137.66666"
         height="69"
         x="32.333332"
         y="161.66667" /><g
         id="g5"
         transform="translate(0,22.182071)"><path
           style="fill:#ffffff;stroke-width:1.88785"
           d="m 131.03469,149.17234 v -1.29826 h -2.7034 -2.70342 l 0.91268,-0.46793 0.91265,-0.4679 0.59483,-0.69333 0.59485,-0.69333 0.33201,-0.86253 0.33202,-0.86252 0.007,-1.75647 0.007,-1.75647 -0.35276,-0.80059 -0.35274,-0.8006 -0.59654,-0.55292 -0.59653,-0.55293 -0.92852,-0.44581 -0.92852,-0.44581 -1.32287,-0.31663 -1.32286,-0.31662 -1.43635,-0.35233 -1.43632,-0.35232 -0.37979,-0.25532 -0.37978,-0.2553 -0.1683,-0.52297 -0.1683,-0.523 0.27235,-0.57184 0.27236,-0.57186 0.59218,-0.29651 0.59218,-0.29649 1.19424,-0.0638 1.19424,-0.0639 1.33982,0.25788 1.33982,0.25787 1.1165,0.44552 1.11652,0.44551 0.11593,7.1e-4 0.11592,7e-4 -0.0414,-2.10013 -0.0414,-2.10013 -1.63754,-0.35477 -1.63756,-0.35477 -2.3819,-0.0808 -2.38188,-0.0808 -1.00805,0.24323 -1.00802,0.24324 -0.62952,0.32895 -0.62953,0.32897 -0.47562,0.37153 -0.47563,0.37152 -0.44739,0.71528 -0.44736,0.71529 -0.23072,0.90882 -0.23074,0.90882 v 0.77586 0.77588 l 0.22463,0.88477 0.22462,0.88476 0.44953,0.67035 0.44952,0.67035 0.64873,0.45794 0.64873,0.45794 0.78954,0.31927 0.78955,0.31931 1.86981,0.45268 1.8698,0.45266 0.68574,0.23044 0.68575,0.23042 0.33637,0.36736 0.33636,0.36734 0.0738,0.67207 0.0738,0.67207 -0.46117,0.53888 -0.46118,0.5389 -0.67128,0.19283 -0.67128,0.19283 -1.60104,-0.0767 -1.60103,-0.0766 -1.26538,-0.41918 -1.26538,-0.41918 -0.85175,-0.44026 -0.85175,-0.44027 h -0.15321 -0.15301 v 2.13338 2.13339 l 1.3026,0.40183 1.3026,0.40181 0.14891,0.0494 0.14892,0.0494 -2.49356,0.0115 -2.49354,0.0115 v 1.29827 1.29826 h 9.22984 9.22984 z"
           id="path5" /><path
           d="m 79.035875,128.29284 7.39726,11.08863 -7.39726,11.08864 h 5.547584 l 7.398545,-11.08864 -7.398545,-11.08863 z m 7.39726,0 7.397215,11.08863 -7.397215,11.08864 h 5.547579 l 4.624105,-6.92958 4.624031,6.92958 h 5.54629 L 91.982004,128.29284 Z m 11.712155,6.46846 2.46662,3.69668 h 9.86248 v -3.69668 z m 3.69925,5.54368 2.46527,3.69666 h 6.16458 v -3.69666 z"
           id="path1"
           style="fill:#ffffff;stroke-width:1.30992" /></g></g><text
       xml:space="preserve"
       transform="scale(0.26458333)"
       id="text4"
       style="font-size:40px;line-height:1.25;font-family:'Bravura Text';-inkscape-font-specification:'Bravura Text';white-space:pre;shape-inside:url(#rect4);display:inline" /></g></svg>
