<?xml version="1.0" encoding="UTF-8" standalone="no"?>
<!DOCTYPE svg PUBLIC "-//W3C//DTD SVG 1.1//EN"
 "http://www.w3.org/Graphics/SVG/1.1/DTD/svg11.dtd">
<!-- Generated by graphviz version 14.1.2 (20260124.0452)
 -->
<!-- Title: deps Pages: 1 -->
<svg width="1083pt" height="908pt"
 viewBox="0.00 0.00 1083.00 908.00" xmlns="http://www.w3.org/2000/svg" xmlns:xlink="http://www.w3.org/1999/xlink">
<g id="graph0" class="graph" transform="scale(1 1) rotate(0) translate(4 904)">
<title>deps</title>
<polygon fill="white" stroke="none" points="-4,4 -4,-904 1079,-904 1079,4 -4,4"/>
<!-- wreq -->
<g id="node1" class="node">
<title>wreq</title>
<ellipse fill="none" stroke="black" stroke-dasharray="5,2" cx="784" cy="-810" rx="29.34" ry="18"/>
<text xml:space="preserve" text-anchor="middle" x="784" y="-804.95" font-family="Times New Roman,serif" font-size="14.00">wreq</text>
</g>
<!-- memory -->
<g id="node9" class="node">
<title>memory</title>
<ellipse fill="none" stroke="black" cx="560" cy="-90" rx="42.65" ry="18"/>
<text xml:space="preserve" text-anchor="middle" x="560" y="-84.95" font-family="Times New Roman,serif" font-size="14.00">memory</text>
</g>
<!-- wreq&#45;&gt;memory -->
<g id="edge54" class="edge">
<title>wreq&#45;&gt;memory</title>
<path fill="none" stroke="black" d="M813.5,-808.09C887.48,-804.08 1075,-782.52 1075,-667 1075,-667 1075,-667 1075,-233 1075,-172.5 1027.24,-168.68 972,-144 908.97,-115.83 709.76,-100.15 613.33,-94.04"/>
<polygon fill="black" stroke="black" points="613.8,-90.56 603.6,-93.43 613.37,-97.55 613.8,-90.56"/>
</g>
<!-- authenticate&#45;oauth -->
<g id="node10" class="node">
<title>authenticate&#45;oauth</title>
<ellipse fill="none" stroke="black" cx="797" cy="-450" rx="78.99" ry="18"/>
<text xml:space="preserve" text-anchor="middle" x="797" y="-444.95" font-family="Times New Roman,serif" font-size="14.00">authenticate&#45;oauth</text>
</g>
<!-- wreq&#45;&gt;authenticate&#45;oauth -->
<g id="edge51" class="edge">
<title>wreq&#45;&gt;authenticate&#45;oauth</title>
<path fill="none" stroke="black" d="M812.11,-804.08C870.39,-792.08 999,-755.57 999,-667 999,-667 999,-667 999,-593 999,-524.5 920.29,-486.18 861.13,-467.06"/>
<polygon fill="black" stroke="black" points="862.37,-463.78 851.78,-464.16 860.3,-470.47 862.37,-463.78"/>
</g>
<!-- crypton -->
<g id="node11" class="node">
<title>crypton</title>
<ellipse fill="none" stroke="black" cx="106" cy="-306" rx="39.07" ry="18"/>
<text xml:space="preserve" text-anchor="middle" x="106" y="-300.95" font-family="Times New Roman,serif" font-size="14.00">crypton</text>
</g>
<!-- wreq&#45;&gt;crypton -->
<g id="edge52" class="edge">
<title>wreq&#45;&gt;crypton</title>
<path fill="none" stroke="black" d="M754.7,-806.86C612.37,-796.1 0,-745.24 0,-667 0,-667 0,-667 0,-449 0,-397.9 44.63,-353.33 75.97,-328.33"/>
<polygon fill="black" stroke="black" points="77.83,-331.31 83.61,-322.43 73.55,-325.77 77.83,-331.31"/>
</g>
<!-- http&#45;client&#45;tls -->
<g id="node19" class="node">
<title>http&#45;client&#45;tls</title>
<ellipse fill="none" stroke="black" cx="512" cy="-738" rx="60.56" ry="18"/>
<text xml:space="preserve" text-anchor="middle" x="512" y="-732.95" font-family="Times New Roman,serif" font-size="14.00">http&#45;client&#45;tls</text>
</g>
<!-- wreq&#45;&gt;http&#45;client&#45;tls -->
<g id="edge53" class="edge">
<title>wreq&#45;&gt;http&#45;client&#45;tls</title>
<path fill="none" stroke="black" d="M757.42,-802.16C713.6,-790.88 625.26,-768.15 567.39,-753.25"/>
<polygon fill="black" stroke="black" points="568.62,-749.96 558.07,-750.86 566.88,-756.74 568.62,-749.96"/>
</g>
<!-- wreq&#45;examples -->
<g id="node2" class="node">
<title>wreq&#45;examples</title>
<ellipse fill="none" stroke="black" stroke-dasharray="5,2" cx="784" cy="-882" rx="67.73" ry="18"/>
<text xml:space="preserve" text-anchor="middle" x="784" y="-876.95" font-family="Times New Roman,serif" font-size="14.00">wreq&#45;examples</text>
</g>
<!-- wreq&#45;examples&#45;&gt;wreq -->
<g id="edge55" class="edge">
<title>wreq&#45;examples&#45;&gt;wreq</title>
<path fill="none" stroke="black" d="M784,-863.7C784,-856.41 784,-847.73 784,-839.54"/>
<polygon fill="black" stroke="black" points="787.5,-839.62 784,-829.62 780.5,-839.62 787.5,-839.62"/>
</g>
<!-- basement -->
<g id="node3" class="node">
<title>basement</title>
<ellipse fill="none" stroke="black" cx="138" cy="-18" rx="46.23" ry="18"/>
<text xml:space="preserve" text-anchor="middle" x="138" y="-12.95" font-family="Times New Roman,serif" font-size="14.00">basement</text>
</g>
<!-- RSA -->
<g id="node4" class="node">
<title>RSA</title>
<ellipse fill="none" stroke="black" cx="768" cy="-378" rx="28.83" ry="18"/>
<text xml:space="preserve" text-anchor="middle" x="768" y="-372.95" font-family="Times New Roman,serif" font-size="14.00">RSA</text>
</g>
<!-- crypto&#45;pubkey&#45;types -->
<g id="node5" class="node">
<title>crypto&#45;pubkey&#45;types</title>
<ellipse fill="none" stroke="black" cx="789" cy="-306" rx="87.18" ry="18"/>
<text xml:space="preserve" text-anchor="middle" x="789" y="-300.95" font-family="Times New Roman,serif" font-size="14.00">crypto&#45;pubkey&#45;types</text>
</g>
<!-- RSA&#45;&gt;crypto&#45;pubkey&#45;types -->
<g id="edge1" class="edge">
<title>RSA&#45;&gt;crypto&#45;pubkey&#45;types</title>
<path fill="none" stroke="black" d="M773.08,-360.05C775.32,-352.6 778.01,-343.64 780.53,-335.22"/>
<polygon fill="black" stroke="black" points="783.86,-336.31 783.38,-325.73 777.16,-334.3 783.86,-336.31"/>
</g>
<!-- asn1&#45;encoding -->
<g id="node6" class="node">
<title>asn1&#45;encoding</title>
<ellipse fill="none" stroke="black" cx="560" cy="-234" rx="64.66" ry="18"/>
<text xml:space="preserve" text-anchor="middle" x="560" y="-228.95" font-family="Times New Roman,serif" font-size="14.00">asn1&#45;encoding</text>
</g>
<!-- crypto&#45;pubkey&#45;types&#45;&gt;asn1&#45;encoding -->
<g id="edge8" class="edge">
<title>crypto&#45;pubkey&#45;types&#45;&gt;asn1&#45;encoding</title>
<path fill="none" stroke="black" d="M741.55,-290.5C704.07,-279.04 651.79,-263.06 612.95,-251.19"/>
<polygon fill="black" stroke="black" points="614.41,-247.97 603.82,-248.4 612.36,-254.67 614.41,-247.97"/>
</g>
<!-- asn1&#45;types -->
<g id="node7" class="node">
<title>asn1&#45;types</title>
<ellipse fill="none" stroke="black" cx="560" cy="-162" rx="50.33" ry="18"/>
<text xml:space="preserve" text-anchor="middle" x="560" y="-156.95" font-family="Times New Roman,serif" font-size="14.00">asn1&#45;types</text>
</g>
<!-- crypto&#45;pubkey&#45;types&#45;&gt;asn1&#45;types -->
<g id="edge9" class="edge">
<title>crypto&#45;pubkey&#45;types&#45;&gt;asn1&#45;types</title>
<path fill="none" stroke="black" d="M773.21,-288.04C754.4,-268.61 721.32,-236.77 688,-216 662.93,-200.37 632.45,-187.54 607.53,-178.42"/>
<polygon fill="black" stroke="black" points="608.88,-175.19 598.29,-175.12 606.53,-181.78 608.88,-175.19"/>
</g>
<!-- asn1&#45;encoding&#45;&gt;asn1&#45;types -->
<g id="edge2" class="edge">
<title>asn1&#45;encoding&#45;&gt;asn1&#45;types</title>
<path fill="none" stroke="black" d="M560,-215.7C560,-208.41 560,-199.73 560,-191.54"/>
<polygon fill="black" stroke="black" points="563.5,-191.62 560,-181.62 556.5,-191.62 563.5,-191.62"/>
</g>
<!-- asn1&#45;types&#45;&gt;memory -->
<g id="edge5" class="edge">
<title>asn1&#45;types&#45;&gt;memory</title>
<path fill="none" stroke="black" d="M560,-143.7C560,-136.41 560,-127.73 560,-119.54"/>
<polygon fill="black" stroke="black" points="563.5,-119.62 560,-109.62 556.5,-119.62 563.5,-119.62"/>
</g>
<!-- asn1&#45;parse -->
<g id="node8" class="node">
<title>asn1&#45;parse</title>
<ellipse fill="none" stroke="black" cx="406" cy="-306" rx="50.33" ry="18"/>
<text xml:space="preserve" text-anchor="middle" x="406" y="-300.95" font-family="Times New Roman,serif" font-size="14.00">asn1&#45;parse</text>
</g>
<!-- asn1&#45;parse&#45;&gt;asn1&#45;encoding -->
<g id="edge3" class="edge">
<title>asn1&#45;parse&#45;&gt;asn1&#45;encoding</title>
<path fill="none" stroke="black" d="M436.06,-291.34C459.06,-280.88 491.1,-266.32 516.84,-254.62"/>
<polygon fill="black" stroke="black" points="518.05,-257.91 525.71,-250.59 515.16,-251.54 518.05,-257.91"/>
</g>
<!-- asn1&#45;parse&#45;&gt;asn1&#45;types -->
<g id="edge4" class="edge">
<title>asn1&#45;parse&#45;&gt;asn1&#45;types</title>
<path fill="none" stroke="black" d="M419.18,-288.26C434.29,-269.59 460.3,-239 486,-216 498.6,-204.72 513.6,-193.61 526.79,-184.5"/>
<polygon fill="black" stroke="black" points="528.45,-187.6 534.76,-179.09 524.52,-181.81 528.45,-187.6"/>
</g>
<!-- memory&#45;&gt;basement -->
<g id="edge41" class="edge">
<title>memory&#45;&gt;basement</title>
<path fill="none" stroke="black" d="M520.68,-82.48C444.58,-69.85 277.12,-42.08 191.18,-27.82"/>
<polygon fill="black" stroke="black" points="191.8,-24.38 181.36,-26.19 190.65,-31.28 191.8,-24.38"/>
</g>
<!-- authenticate&#45;oauth&#45;&gt;RSA -->
<g id="edge6" class="edge">
<title>authenticate&#45;oauth&#45;&gt;RSA</title>
<path fill="none" stroke="black" d="M789.83,-431.7C786.62,-423.95 782.77,-414.64 779.19,-406.02"/>
<polygon fill="black" stroke="black" points="782.53,-404.92 775.47,-397.02 776.06,-407.6 782.53,-404.92"/>
</g>
<!-- authenticate&#45;oauth&#45;&gt;crypto&#45;pubkey&#45;types -->
<g id="edge7" class="edge">
<title>authenticate&#45;oauth&#45;&gt;crypto&#45;pubkey&#45;types</title>
<path fill="none" stroke="black" d="M801.4,-431.53C805.31,-413.54 809.86,-384.7 806,-360 804.72,-351.79 802.38,-343.11 799.83,-335.21"/>
<polygon fill="black" stroke="black" points="803.14,-334.07 796.56,-325.77 796.53,-336.36 803.14,-334.07"/>
</g>
<!-- crypton&#45;&gt;basement -->
<g id="edge10" class="edge">
<title>crypton&#45;&gt;basement</title>
<path fill="none" stroke="black" d="M106.27,-287.62C107.11,-248.73 110.49,-151.81 124,-72 125.39,-63.8 127.46,-55.03 129.58,-47.03"/>
<polygon fill="black" stroke="black" points="132.93,-48.04 132.26,-37.47 126.19,-46.16 132.93,-48.04"/>
</g>
<!-- crypton&#45;&gt;memory -->
<g id="edge11" class="edge">
<title>crypton&#45;&gt;memory</title>
<path fill="none" stroke="black" d="M114.48,-288.2C132.4,-254.6 177.56,-179.34 239,-144 283.68,-118.3 427.83,-102.3 506.89,-95.24"/>
<polygon fill="black" stroke="black" points="506.9,-98.75 516.56,-94.39 506.29,-91.78 506.9,-98.75"/>
</g>
<!-- crypton&#45;connection -->
<g id="node12" class="node">
<title>crypton&#45;connection</title>
<ellipse fill="none" stroke="black" cx="398" cy="-666" rx="82.57" ry="18"/>
<text xml:space="preserve" text-anchor="middle" x="398" y="-660.95" font-family="Times New Roman,serif" font-size="14.00">crypton&#45;connection</text>
</g>
<!-- crypton&#45;x509&#45;store -->
<g id="node13" class="node">
<title>crypton&#45;x509&#45;store</title>
<ellipse fill="none" stroke="black" cx="262" cy="-450" rx="81.55" ry="18"/>
<text xml:space="preserve" text-anchor="middle" x="262" y="-444.95" font-family="Times New Roman,serif" font-size="14.00">crypton&#45;x509&#45;store</text>
</g>
<!-- crypton&#45;connection&#45;&gt;crypton&#45;x509&#45;store -->
<g id="edge12" class="edge">
<title>crypton&#45;connection&#45;&gt;crypton&#45;x509&#45;store</title>
<path fill="none" stroke="black" d="M357.8,-649.97C314.77,-631.45 248.82,-595.45 220,-540 212.62,-525.8 214.74,-519.11 220,-504 223.48,-494.01 229.71,-484.49 236.33,-476.34"/>
<polygon fill="black" stroke="black" points="238.88,-478.74 242.84,-468.91 233.61,-474.13 238.88,-478.74"/>
</g>
<!-- crypton&#45;x509&#45;system -->
<g id="node14" class="node">
<title>crypton&#45;x509&#45;system</title>
<ellipse fill="none" stroke="black" cx="330" cy="-522" rx="89.74" ry="18"/>
<text xml:space="preserve" text-anchor="middle" x="330" y="-516.95" font-family="Times New Roman,serif" font-size="14.00">crypton&#45;x509&#45;system</text>
</g>
<!-- crypton&#45;connection&#45;&gt;crypton&#45;x509&#45;system -->
<g id="edge13" class="edge">
<title>crypton&#45;connection&#45;&gt;crypton&#45;x509&#45;system</title>
<path fill="none" stroke="black" d="M389.8,-647.87C378.21,-623.67 356.92,-579.21 343.12,-550.39"/>
<polygon fill="black" stroke="black" points="346.36,-549.06 338.89,-541.55 340.05,-552.09 346.36,-549.06"/>
</g>
<!-- tls -->
<g id="node15" class="node">
<title>tls</title>
<ellipse fill="none" stroke="black" cx="512" cy="-594" rx="27" ry="18"/>
<text xml:space="preserve" text-anchor="middle" x="512" y="-588.95" font-family="Times New Roman,serif" font-size="14.00">tls</text>
</g>
<!-- crypton&#45;connection&#45;&gt;tls -->
<g id="edge14" class="edge">
<title>crypton&#45;connection&#45;&gt;tls</title>
<path fill="none" stroke="black" d="M424.73,-648.59C442.19,-637.86 465,-623.86 482.92,-612.86"/>
<polygon fill="black" stroke="black" points="484.59,-615.94 491.28,-607.72 480.92,-609.97 484.59,-615.94"/>
</g>
<!-- crypton&#45;x509&#45;store&#45;&gt;asn1&#45;encoding -->
<g id="edge21" class="edge">
<title>crypton&#45;x509&#45;store&#45;&gt;asn1&#45;encoding</title>
<path fill="none" stroke="black" d="M338.45,-443.34C379.65,-437.01 429.39,-423.73 466,-396 511.05,-361.88 538.37,-299.41 551.2,-263.13"/>
<polygon fill="black" stroke="black" points="554.47,-264.37 554.37,-253.77 547.84,-262.12 554.47,-264.37"/>
</g>
<!-- crypton&#45;x509&#45;store&#45;&gt;asn1&#45;types -->
<g id="edge22" class="edge">
<title>crypton&#45;x509&#45;store&#45;&gt;asn1&#45;types</title>
<path fill="none" stroke="black" d="M265,-431.68C273.42,-388.45 301.34,-275.07 371,-216 406.8,-185.64 458.78,-172.61 499.18,-167.05"/>
<polygon fill="black" stroke="black" points="499.51,-170.53 509,-165.82 498.65,-163.59 499.51,-170.53"/>
</g>
<!-- crypton&#45;x509&#45;store&#45;&gt;crypton -->
<g id="edge23" class="edge">
<title>crypton&#45;x509&#45;store&#45;&gt;crypton</title>
<path fill="none" stroke="black" d="M243.49,-432.15C215.61,-406.77 162.74,-358.65 131.31,-330.04"/>
<polygon fill="black" stroke="black" points="133.93,-327.69 124.17,-323.54 129.21,-332.86 133.93,-327.69"/>
</g>
<!-- crypton&#45;x509 -->
<g id="node16" class="node">
<title>crypton&#45;x509</title>
<ellipse fill="none" stroke="black" cx="396" cy="-378" rx="60.56" ry="18"/>
<text xml:space="preserve" text-anchor="middle" x="396" y="-372.95" font-family="Times New Roman,serif" font-size="14.00">crypton&#45;x509</text>
</g>
<!-- crypton&#45;x509&#45;store&#45;&gt;crypton&#45;x509 -->
<g id="edge24" class="edge">
<title>crypton&#45;x509&#45;store&#45;&gt;crypton&#45;x509</title>
<path fill="none" stroke="black" d="M292.74,-432.94C311.91,-422.93 336.75,-409.95 357.26,-399.24"/>
<polygon fill="black" stroke="black" points="358.65,-402.46 365.89,-394.73 355.41,-396.26 358.65,-402.46"/>
</g>
<!-- pem -->
<g id="node17" class="node">
<title>pem</title>
<ellipse fill="none" stroke="black" cx="197" cy="-306" rx="27.3" ry="18"/>
<text xml:space="preserve" text-anchor="middle" x="197" y="-300.95" font-family="Times New Roman,serif" font-size="14.00">pem</text>
</g>
<!-- crypton&#45;x509&#45;store&#45;&gt;pem -->
<g id="edge25" class="edge">
<title>crypton&#45;x509&#45;store&#45;&gt;pem</title>
<path fill="none" stroke="black" d="M254.03,-431.59C242.85,-407.16 222.4,-362.49 209.27,-333.81"/>
<polygon fill="black" stroke="black" points="212.61,-332.68 205.26,-325.05 206.24,-335.6 212.61,-332.68"/>
</g>
<!-- crypton&#45;x509&#45;system&#45;&gt;asn1&#45;encoding -->
<g id="edge26" class="edge">
<title>crypton&#45;x509&#45;system&#45;&gt;asn1&#45;encoding</title>
<path fill="none" stroke="black" d="M357.87,-504.48C393.19,-482.66 454.69,-441.61 498,-396 524.48,-368.11 532.02,-359.83 546,-324 553.53,-304.7 557.02,-281.55 558.63,-263.7"/>
<polygon fill="black" stroke="black" points="562.11,-264.04 559.36,-253.81 555.13,-263.52 562.11,-264.04"/>
</g>
<!-- crypton&#45;x509&#45;system&#45;&gt;crypton&#45;x509&#45;store -->
<g id="edge28" class="edge">
<title>crypton&#45;x509&#45;system&#45;&gt;crypton&#45;x509&#45;store</title>
<path fill="none" stroke="black" d="M313.54,-504.05C305.35,-495.63 295.3,-485.28 286.25,-475.97"/>
<polygon fill="black" stroke="black" points="288.84,-473.61 279.36,-468.87 283.82,-478.49 288.84,-473.61"/>
</g>
<!-- crypton&#45;x509&#45;system&#45;&gt;crypton&#45;x509 -->
<g id="edge27" class="edge">
<title>crypton&#45;x509&#45;system&#45;&gt;crypton&#45;x509</title>
<path fill="none" stroke="black" d="M338.09,-503.59C349.39,-479.29 369.98,-434.97 383.32,-406.27"/>
<polygon fill="black" stroke="black" points="386.37,-408.03 387.41,-397.48 380.02,-405.08 386.37,-408.03"/>
</g>
<!-- crypton&#45;x509&#45;system&#45;&gt;pem -->
<g id="edge29" class="edge">
<title>crypton&#45;x509&#45;system&#45;&gt;pem</title>
<path fill="none" stroke="black" d="M249.61,-513.71C219.97,-506.66 189.2,-493.26 171,-468 142.02,-427.79 164.83,-367.29 182.15,-333.05"/>
<polygon fill="black" stroke="black" points="185.22,-334.73 186.8,-324.25 179.04,-331.46 185.22,-334.73"/>
</g>
<!-- tls&#45;&gt;asn1&#45;encoding -->
<g id="edge44" class="edge">
<title>tls&#45;&gt;asn1&#45;encoding</title>
<path fill="none" stroke="black" d="M539.47,-593.79C579.11,-593.24 651.29,-585.59 685,-540 752.83,-448.28 639.24,-314.47 585.63,-259.73"/>
<polygon fill="black" stroke="black" points="588.18,-257.34 578.65,-252.72 583.22,-262.27 588.18,-257.34"/>
</g>
<!-- tls&#45;&gt;asn1&#45;types -->
<g id="edge45" class="edge">
<title>tls&#45;&gt;asn1&#45;types</title>
<path fill="none" stroke="black" d="M539.22,-592.2C633.75,-587.83 942,-559.74 942,-379 942,-379 942,-379 942,-305 942,-236.48 723.32,-190.36 616.87,-171.96"/>
<polygon fill="black" stroke="black" points="617.64,-168.54 607.19,-170.32 616.46,-175.44 617.64,-168.54"/>
</g>
<!-- tls&#45;&gt;memory -->
<g id="edge50" class="edge">
<title>tls&#45;&gt;memory</title>
<path fill="none" stroke="black" d="M539.2,-593.82C599.1,-594.57 745.68,-590.62 854,-540 936.32,-501.53 980,-469.86 980,-379 980,-379 980,-379 980,-233 980,-156.15 724.46,-112.79 612.03,-97.44"/>
<polygon fill="black" stroke="black" points="612.53,-93.97 602.15,-96.11 611.6,-100.91 612.53,-93.97"/>
</g>
<!-- tls&#45;&gt;crypton -->
<g id="edge46" class="edge">
<title>tls&#45;&gt;crypton</title>
<path fill="none" stroke="black" d="M484.77,-592.78C431.35,-591.37 310.13,-583.21 220,-540 147.38,-505.18 126.15,-474.9 110,-396 105.94,-376.15 104.99,-353.31 105.02,-335.74"/>
<polygon fill="black" stroke="black" points="108.52,-335.82 105.17,-325.77 101.52,-335.72 108.52,-335.82"/>
</g>
<!-- tls&#45;&gt;crypton&#45;x509&#45;store -->
<g id="edge48" class="edge">
<title>tls&#45;&gt;crypton&#45;x509&#45;store</title>
<path fill="none" stroke="black" d="M484.99,-592.11C421.01,-589.39 263.16,-578.79 231,-540 216.08,-522 227.47,-496.38 240.45,-477.24"/>
<polygon fill="black" stroke="black" points="243.1,-479.54 246.15,-469.39 237.44,-475.42 243.1,-479.54"/>
</g>
<!-- tls&#45;&gt;crypton&#45;x509 -->
<g id="edge47" class="edge">
<title>tls&#45;&gt;crypton&#45;x509</title>
<path fill="none" stroke="black" d="M497.77,-578.6C488.23,-568.41 475.84,-554.12 467,-540 439.58,-496.23 417.41,-440.05 405.52,-406.95"/>
<polygon fill="black" stroke="black" points="408.88,-405.95 402.25,-397.68 402.27,-408.28 408.88,-405.95"/>
</g>
<!-- crypton&#45;x509&#45;validation -->
<g id="node18" class="node">
<title>crypton&#45;x509&#45;validation</title>
<ellipse fill="none" stroke="black" cx="576" cy="-522" rx="100.48" ry="18"/>
<text xml:space="preserve" text-anchor="middle" x="576" y="-516.95" font-family="Times New Roman,serif" font-size="14.00">crypton&#45;x509&#45;validation</text>
</g>
<!-- tls&#45;&gt;crypton&#45;x509&#45;validation -->
<g id="edge49" class="edge">
<title>tls&#45;&gt;crypton&#45;x509&#45;validation</title>
<path fill="none" stroke="black" d="M525.57,-578.15C533.46,-569.53 543.62,-558.42 552.75,-548.43"/>
<polygon fill="black" stroke="black" points="555.23,-550.9 559.4,-541.16 550.07,-546.18 555.23,-550.9"/>
</g>
<!-- crypton&#45;x509&#45;&gt;asn1&#45;encoding -->
<g id="edge15" class="edge">
<title>crypton&#45;x509&#45;&gt;asn1&#45;encoding</title>
<path fill="none" stroke="black" d="M418.18,-360.82C431.93,-350.59 449.8,-336.9 465,-324 489.65,-303.07 516.42,-277.73 535.25,-259.45"/>
<polygon fill="black" stroke="black" points="537.5,-262.14 542.22,-252.65 532.61,-257.13 537.5,-262.14"/>
</g>
<!-- crypton&#45;x509&#45;&gt;asn1&#45;types -->
<g id="edge17" class="edge">
<title>crypton&#45;x509&#45;&gt;asn1&#45;types</title>
<path fill="none" stroke="black" d="M374.87,-360.8C364.34,-351.36 352.66,-338.47 347,-324 341.17,-309.1 339.71,-302.24 347,-288 378.75,-226.01 455.97,-192.36 508.17,-176.04"/>
<polygon fill="black" stroke="black" points="508.89,-179.48 517.46,-173.26 506.87,-172.78 508.89,-179.48"/>
</g>
<!-- crypton&#45;x509&#45;&gt;asn1&#45;parse -->
<g id="edge16" class="edge">
<title>crypton&#45;x509&#45;&gt;asn1&#45;parse</title>
<path fill="none" stroke="black" d="M398.47,-359.7C399.53,-352.32 400.78,-343.52 401.96,-335.25"/>
<polygon fill="black" stroke="black" points="405.39,-336 403.34,-325.6 398.46,-335.01 405.39,-336"/>
</g>
<!-- crypton&#45;x509&#45;&gt;memory -->
<g id="edge19" class="edge">
<title>crypton&#45;x509&#45;&gt;memory</title>
<path fill="none" stroke="black" d="M370.78,-361.38C358.42,-352.19 344.77,-339.35 338,-324 317.75,-278.07 338.36,-254.12 371,-216 413.13,-166.79 479.26,-129.17 521.08,-108.59"/>
<polygon fill="black" stroke="black" points="522.57,-111.76 530.06,-104.26 519.53,-105.45 522.57,-111.76"/>
</g>
<!-- crypton&#45;x509&#45;&gt;crypton -->
<g id="edge18" class="edge">
<title>crypton&#45;x509&#45;&gt;crypton</title>
<path fill="none" stroke="black" d="M347.12,-367.14C299.4,-357.23 224.85,-341.04 161,-324 156.78,-322.87 152.39,-321.63 148.02,-320.36"/>
<polygon fill="black" stroke="black" points="149.32,-317.09 138.74,-317.57 147.31,-323.8 149.32,-317.09"/>
</g>
<!-- crypton&#45;x509&#45;&gt;pem -->
<g id="edge20" class="edge">
<title>crypton&#45;x509&#45;&gt;pem</title>
<path fill="none" stroke="black" d="M358.1,-363.67C321.57,-350.82 266.78,-331.54 231.45,-319.12"/>
<polygon fill="black" stroke="black" points="232.74,-315.86 222.14,-315.84 230.41,-322.46 232.74,-315.86"/>
</g>
<!-- pem&#45;&gt;basement -->
<g id="edge42" class="edge">
<title>pem&#45;&gt;basement</title>
<path fill="none" stroke="black" d="M193.49,-287.97C183.69,-240.49 156.01,-106.31 143.85,-47.36"/>
<polygon fill="black" stroke="black" points="147.32,-46.88 141.88,-37.79 140.47,-48.29 147.32,-46.88"/>
</g>
<!-- pem&#45;&gt;memory -->
<g id="edge43" class="edge">
<title>pem&#45;&gt;memory</title>
<path fill="none" stroke="black" d="M200.05,-287.81C206.97,-254.19 227.24,-179.91 276,-144 311.99,-117.49 435.5,-102.21 507.24,-95.36"/>
<polygon fill="black" stroke="black" points="507.15,-98.89 516.78,-94.48 506.5,-91.92 507.15,-98.89"/>
</g>
<!-- crypton&#45;x509&#45;validation&#45;&gt;asn1&#45;encoding -->
<g id="edge30" class="edge">
<title>crypton&#45;x509&#45;validation&#45;&gt;asn1&#45;encoding</title>
<path fill="none" stroke="black" d="M577.32,-503.65C579.95,-464.81 584.74,-367.99 574,-288 572.89,-279.76 570.91,-270.97 568.78,-262.97"/>
<polygon fill="black" stroke="black" points="572.17,-262.08 566.06,-253.42 565.44,-264 572.17,-262.08"/>
</g>
<!-- crypton&#45;x509&#45;validation&#45;&gt;asn1&#45;types -->
<g id="edge31" class="edge">
<title>crypton&#45;x509&#45;validation&#45;&gt;asn1&#45;types</title>
<path fill="none" stroke="black" d="M586.55,-503.72C614.59,-455.41 685.36,-315.96 634,-216 626.68,-201.75 613.55,-190.47 600.36,-182.05"/>
<polygon fill="black" stroke="black" points="602.52,-179.26 592.13,-177.19 598.96,-185.29 602.52,-179.26"/>
</g>
<!-- crypton&#45;x509&#45;validation&#45;&gt;memory -->
<g id="edge35" class="edge">
<title>crypton&#45;x509&#45;validation&#45;&gt;memory</title>
<path fill="none" stroke="black" d="M671.62,-516.14C750.8,-510.1 855.02,-496.79 885,-468 914.17,-439.98 904,-419.45 904,-379 904,-379 904,-379 904,-233 904,-170.06 704.75,-120.67 609.54,-100.67"/>
<polygon fill="black" stroke="black" points="610.44,-97.28 599.94,-98.68 609.02,-104.14 610.44,-97.28"/>
</g>
<!-- crypton&#45;x509&#45;validation&#45;&gt;crypton -->
<g id="edge32" class="edge">
<title>crypton&#45;x509&#45;validation&#45;&gt;crypton</title>
<path fill="none" stroke="black" d="M493.72,-511.28C377.17,-497.37 177.34,-472.91 171,-468 129.27,-435.71 114.22,-372.3 108.87,-335.42"/>
<polygon fill="black" stroke="black" points="112.4,-335.43 107.65,-325.96 105.46,-336.33 112.4,-335.43"/>
</g>
<!-- crypton&#45;x509&#45;validation&#45;&gt;crypton&#45;x509&#45;store -->
<g id="edge34" class="edge">
<title>crypton&#45;x509&#45;validation&#45;&gt;crypton&#45;x509&#45;store</title>
<path fill="none" stroke="black" d="M514.71,-507.34C461.28,-495.43 383.93,-478.18 328.91,-465.92"/>
<polygon fill="black" stroke="black" points="329.86,-462.54 319.34,-463.78 328.34,-469.38 329.86,-462.54"/>
</g>
<!-- crypton&#45;x509&#45;validation&#45;&gt;crypton&#45;x509 -->
<g id="edge33" class="edge">
<title>crypton&#45;x509&#45;validation&#45;&gt;crypton&#45;x509</title>
<path fill="none" stroke="black" d="M554.64,-504.15C522.54,-478.82 461.73,-430.85 425.44,-402.22"/>
<polygon fill="black" stroke="black" points="427.98,-399.77 417.96,-396.32 423.64,-405.27 427.98,-399.77"/>
</g>
<!-- crypton&#45;x509&#45;validation&#45;&gt;pem -->
<g id="edge36" class="edge">
<title>crypton&#45;x509&#45;validation&#45;&gt;pem</title>
<path fill="none" stroke="black" d="M539.49,-504.83C516.75,-494.59 486.99,-480.91 461,-468 400.1,-437.76 384.08,-431.37 326,-396 289.53,-373.79 249.29,-345.36 223.61,-326.69"/>
<polygon fill="black" stroke="black" points="225.88,-324.01 215.74,-320.93 221.75,-329.66 225.88,-324.01"/>
</g>
<!-- http&#45;client&#45;tls&#45;&gt;memory -->
<g id="edge39" class="edge">
<title>http&#45;client&#45;tls&#45;&gt;memory</title>
<path fill="none" stroke="black" d="M570.19,-732.39C706.88,-718.08 1037,-661.7 1037,-451 1037,-451 1037,-451 1037,-233 1037,-162.61 971.51,-169.74 906,-144 807.82,-105.42 683.7,-94.79 613.96,-91.95"/>
<polygon fill="black" stroke="black" points="614.47,-88.46 604.35,-91.6 614.21,-95.46 614.47,-88.46"/>
</g>
<!-- http&#45;client&#45;tls&#45;&gt;crypton -->
<g id="edge37" class="edge">
<title>http&#45;client&#45;tls&#45;&gt;crypton</title>
<path fill="none" stroke="black" d="M454.35,-731.97C328.03,-719.35 38,-681.01 38,-595 38,-595 38,-595 38,-449 38,-404.69 65.26,-359.57 85.26,-332.42"/>
<polygon fill="black" stroke="black" points="88.04,-334.54 91.32,-324.47 82.48,-330.3 88.04,-334.54"/>
</g>
<!-- http&#45;client&#45;tls&#45;&gt;crypton&#45;connection -->
<g id="edge38" class="edge">
<title>http&#45;client&#45;tls&#45;&gt;crypton&#45;connection</title>
<path fill="none" stroke="black" d="M486.42,-721.29C471.05,-711.86 451.26,-699.7 434.29,-689.29"/>
<polygon fill="black" stroke="black" points="436.33,-686.43 425.98,-684.18 432.67,-692.39 436.33,-686.43"/>
</g>
<!-- http&#45;client&#45;tls&#45;&gt;tls -->
<g id="edge40" class="edge">
<title>http&#45;client&#45;tls&#45;&gt;tls</title>
<path fill="none" stroke="black" d="M512,-719.59C512,-695.61 512,-652.14 512,-623.42"/>
<polygon fill="black" stroke="black" points="515.5,-623.62 512,-613.62 508.5,-623.62 515.5,-623.62"/>
</g>
</g>
</svg>
